<mxfile host="app.diagrams.net" modified="2023-04-10T05:11:26.802Z" agent="Mozilla/5.0 (Windows NT 10.0; Win64; x64) AppleWebKit/537.36 (KHTML, like Gecko) Chrome/111.0.0.0 Safari/537.36" etag="V0E8mX9qD7RNTMDdw5uf" version="21.1.5" type="github">
  <diagram name="Page-1" id="wzk7bqDdGtJB6rvD9kmu">
    <mxGraphModel dx="954" dy="584" grid="1" gridSize="10" guides="1" tooltips="1" connect="1" arrows="1" fold="1" page="1" pageScale="1" pageWidth="850" pageHeight="1100" math="0" shadow="0">
      <root>
        <mxCell id="0" />
        <mxCell id="1" parent="0" />
        <mxCell id="8-PIE44-jiIYAOWSu3xI-6" value="" style="rounded=1;whiteSpace=wrap;html=1;" vertex="1" parent="1">
          <mxGeometry x="50" y="90" width="40" height="20" as="geometry" />
        </mxCell>
        <mxCell id="8-PIE44-jiIYAOWSu3xI-1" value="" style="whiteSpace=wrap;html=1;aspect=fixed;" vertex="1" parent="1">
          <mxGeometry x="40" y="80" width="760" height="760" as="geometry" />
        </mxCell>
        <mxCell id="8-PIE44-jiIYAOWSu3xI-5" value="&lt;h3&gt;&amp;nbsp; &amp;nbsp; &amp;nbsp; &amp;nbsp; &amp;nbsp; &amp;nbsp; &amp;nbsp; &amp;nbsp; &amp;nbsp; &amp;nbsp; &amp;nbsp; &amp;nbsp; &amp;nbsp; &amp;nbsp; &amp;nbsp; &amp;nbsp; &amp;nbsp; &amp;nbsp; &amp;nbsp; &amp;nbsp; &amp;nbsp; &amp;nbsp; &amp;nbsp; &amp;nbsp; &amp;nbsp; &amp;nbsp; &amp;nbsp; &amp;nbsp; &amp;nbsp;HOME&amp;nbsp; &amp;nbsp; &amp;nbsp; &amp;nbsp; &amp;nbsp; &amp;nbsp; &amp;nbsp; &amp;nbsp; &amp;nbsp; &amp;nbsp;ABOUT&amp;nbsp; &amp;nbsp; &amp;nbsp; &amp;nbsp; &amp;nbsp; &amp;nbsp; &amp;nbsp; &amp;nbsp;CONTACTS&lt;/h3&gt;" style="rounded=0;whiteSpace=wrap;html=1;align=left;" vertex="1" parent="1">
          <mxGeometry x="40" y="80" width="760" height="60" as="geometry" />
        </mxCell>
        <mxCell id="8-PIE44-jiIYAOWSu3xI-7" value="Logo" style="rounded=1;whiteSpace=wrap;html=1;" vertex="1" parent="1">
          <mxGeometry x="50" y="90" width="70" height="30" as="geometry" />
        </mxCell>
        <mxCell id="8-PIE44-jiIYAOWSu3xI-8" value="REGISTER" style="rounded=1;whiteSpace=wrap;html=1;" vertex="1" parent="1">
          <mxGeometry x="590" y="90" width="80" height="30" as="geometry" />
        </mxCell>
        <mxCell id="8-PIE44-jiIYAOWSu3xI-9" value="LOGIN" style="rounded=1;whiteSpace=wrap;html=1;" vertex="1" parent="1">
          <mxGeometry x="700" y="90" width="80" height="30" as="geometry" />
        </mxCell>
        <mxCell id="8-PIE44-jiIYAOWSu3xI-10" value="FOOTER" style="rounded=0;whiteSpace=wrap;html=1;" vertex="1" parent="1">
          <mxGeometry x="40" y="760" width="760" height="80" as="geometry" />
        </mxCell>
      </root>
    </mxGraphModel>
  </diagram>
</mxfile>
